<mxfile host="app.diagrams.net" agent="Mozilla/5.0 (Macintosh; Intel Mac OS X 10_15_7) AppleWebKit/605.1.15 (KHTML, like Gecko) Version/18.0 Safari/605.1.15" version="26.0.5">
  <diagram id="C5RBs43oDa-KdzZeNtuy" name="Page-1">
    <mxGraphModel dx="938" dy="536" grid="1" gridSize="10" guides="1" tooltips="1" connect="1" arrows="1" fold="1" page="1" pageScale="1" pageWidth="827" pageHeight="1169" math="0" shadow="0">
      <root>
        <mxCell id="WIyWlLk6GJQsqaUBKTNV-0" />
        <mxCell id="WIyWlLk6GJQsqaUBKTNV-1" parent="WIyWlLk6GJQsqaUBKTNV-0" />
        <mxCell id="SDCV4HEXbszDsQ0u5EDD-6" style="edgeStyle=orthogonalEdgeStyle;rounded=0;orthogonalLoop=1;jettySize=auto;html=1;entryX=0.5;entryY=0;entryDx=0;entryDy=0;" edge="1" parent="WIyWlLk6GJQsqaUBKTNV-1" source="WIyWlLk6GJQsqaUBKTNV-3" target="SDCV4HEXbszDsQ0u5EDD-0">
          <mxGeometry relative="1" as="geometry" />
        </mxCell>
        <mxCell id="WIyWlLk6GJQsqaUBKTNV-3" value="User made changes to local repository&amp;nbsp;" style="rounded=1;whiteSpace=wrap;html=1;fontSize=12;glass=0;strokeWidth=1;shadow=0;" parent="WIyWlLk6GJQsqaUBKTNV-1" vertex="1">
          <mxGeometry x="30" y="30" width="120" height="40" as="geometry" />
        </mxCell>
        <mxCell id="WIyWlLk6GJQsqaUBKTNV-8" value="No" style="rounded=0;html=1;jettySize=auto;orthogonalLoop=1;fontSize=11;endArrow=block;endFill=0;endSize=8;strokeWidth=1;shadow=0;labelBackgroundColor=none;edgeStyle=orthogonalEdgeStyle;" parent="WIyWlLk6GJQsqaUBKTNV-1" source="WIyWlLk6GJQsqaUBKTNV-10" edge="1">
          <mxGeometry x="0.3333" y="20" relative="1" as="geometry">
            <mxPoint as="offset" />
            <mxPoint x="650" y="410" as="targetPoint" />
          </mxGeometry>
        </mxCell>
        <mxCell id="SDCV4HEXbszDsQ0u5EDD-7" style="edgeStyle=orthogonalEdgeStyle;rounded=0;orthogonalLoop=1;jettySize=auto;html=1;entryX=0.5;entryY=0;entryDx=0;entryDy=0;" edge="1" parent="WIyWlLk6GJQsqaUBKTNV-1" source="SDCV4HEXbszDsQ0u5EDD-0" target="SDCV4HEXbszDsQ0u5EDD-1">
          <mxGeometry relative="1" as="geometry" />
        </mxCell>
        <mxCell id="SDCV4HEXbszDsQ0u5EDD-0" value="User create and push a feature branch" style="rounded=1;whiteSpace=wrap;html=1;fontSize=12;glass=0;strokeWidth=1;shadow=0;" vertex="1" parent="WIyWlLk6GJQsqaUBKTNV-1">
          <mxGeometry x="30" y="109" width="120" height="40" as="geometry" />
        </mxCell>
        <mxCell id="SDCV4HEXbszDsQ0u5EDD-8" style="edgeStyle=orthogonalEdgeStyle;rounded=0;orthogonalLoop=1;jettySize=auto;html=1;" edge="1" parent="WIyWlLk6GJQsqaUBKTNV-1" source="SDCV4HEXbszDsQ0u5EDD-1" target="SDCV4HEXbszDsQ0u5EDD-3">
          <mxGeometry relative="1" as="geometry" />
        </mxCell>
        <mxCell id="SDCV4HEXbszDsQ0u5EDD-1" value="User creates a pull request from feature to dev branch" style="rounded=1;whiteSpace=wrap;html=1;fontSize=12;glass=0;strokeWidth=1;shadow=0;" vertex="1" parent="WIyWlLk6GJQsqaUBKTNV-1">
          <mxGeometry x="20" y="189" width="140" height="40" as="geometry" />
        </mxCell>
        <mxCell id="SDCV4HEXbszDsQ0u5EDD-2" value="Teamcity detects this pull request or new changes in this pull request" style="rounded=1;whiteSpace=wrap;html=1;fontSize=12;glass=0;strokeWidth=1;shadow=0;" vertex="1" parent="WIyWlLk6GJQsqaUBKTNV-1">
          <mxGeometry x="10" y="270" width="160" height="40" as="geometry" />
        </mxCell>
        <mxCell id="SDCV4HEXbszDsQ0u5EDD-15" style="edgeStyle=orthogonalEdgeStyle;rounded=0;orthogonalLoop=1;jettySize=auto;html=1;entryX=0.5;entryY=0;entryDx=0;entryDy=0;" edge="1" parent="WIyWlLk6GJQsqaUBKTNV-1" source="SDCV4HEXbszDsQ0u5EDD-3" target="SDCV4HEXbszDsQ0u5EDD-4">
          <mxGeometry relative="1" as="geometry" />
        </mxCell>
        <mxCell id="SDCV4HEXbszDsQ0u5EDD-3" value="Teamcity executes unit test" style="rounded=1;whiteSpace=wrap;html=1;fontSize=12;glass=0;strokeWidth=1;shadow=0;" vertex="1" parent="WIyWlLk6GJQsqaUBKTNV-1">
          <mxGeometry x="20" y="350" width="140" height="40" as="geometry" />
        </mxCell>
        <mxCell id="SDCV4HEXbszDsQ0u5EDD-10" style="edgeStyle=orthogonalEdgeStyle;rounded=0;orthogonalLoop=1;jettySize=auto;html=1;entryX=0.5;entryY=0;entryDx=0;entryDy=0;" edge="1" parent="WIyWlLk6GJQsqaUBKTNV-1" source="SDCV4HEXbszDsQ0u5EDD-4" target="SDCV4HEXbszDsQ0u5EDD-5">
          <mxGeometry relative="1" as="geometry" />
        </mxCell>
        <mxCell id="SDCV4HEXbszDsQ0u5EDD-17" style="edgeStyle=orthogonalEdgeStyle;rounded=0;orthogonalLoop=1;jettySize=auto;html=1;entryX=0;entryY=0.5;entryDx=0;entryDy=0;" edge="1" parent="WIyWlLk6GJQsqaUBKTNV-1" source="SDCV4HEXbszDsQ0u5EDD-4" target="SDCV4HEXbszDsQ0u5EDD-16">
          <mxGeometry relative="1" as="geometry" />
        </mxCell>
        <mxCell id="SDCV4HEXbszDsQ0u5EDD-4" value="Unit test passed?" style="rhombus;whiteSpace=wrap;html=1;shadow=0;fontFamily=Helvetica;fontSize=12;align=center;strokeWidth=1;spacing=6;spacingTop=-4;" vertex="1" parent="WIyWlLk6GJQsqaUBKTNV-1">
          <mxGeometry x="40" y="430" width="100" height="80" as="geometry" />
        </mxCell>
        <mxCell id="SDCV4HEXbszDsQ0u5EDD-20" style="edgeStyle=orthogonalEdgeStyle;rounded=0;orthogonalLoop=1;jettySize=auto;html=1;entryX=0;entryY=0.5;entryDx=0;entryDy=0;" edge="1" parent="WIyWlLk6GJQsqaUBKTNV-1" source="SDCV4HEXbszDsQ0u5EDD-5" target="SDCV4HEXbszDsQ0u5EDD-13">
          <mxGeometry relative="1" as="geometry" />
        </mxCell>
        <mxCell id="SDCV4HEXbszDsQ0u5EDD-5" value="feature is merged to dev" style="rounded=1;whiteSpace=wrap;html=1;fontSize=12;glass=0;strokeWidth=1;shadow=0;" vertex="1" parent="WIyWlLk6GJQsqaUBKTNV-1">
          <mxGeometry x="20" y="550" width="140" height="40" as="geometry" />
        </mxCell>
        <mxCell id="SDCV4HEXbszDsQ0u5EDD-12" value="Yes" style="text;html=1;align=center;verticalAlign=middle;resizable=0;points=[];autosize=1;strokeColor=none;fillColor=none;" vertex="1" parent="WIyWlLk6GJQsqaUBKTNV-1">
          <mxGeometry x="90" y="510" width="40" height="30" as="geometry" />
        </mxCell>
        <mxCell id="SDCV4HEXbszDsQ0u5EDD-22" style="edgeStyle=orthogonalEdgeStyle;rounded=0;orthogonalLoop=1;jettySize=auto;html=1;entryX=0;entryY=0.5;entryDx=0;entryDy=0;" edge="1" parent="WIyWlLk6GJQsqaUBKTNV-1" source="SDCV4HEXbszDsQ0u5EDD-13" target="SDCV4HEXbszDsQ0u5EDD-21">
          <mxGeometry relative="1" as="geometry">
            <Array as="points">
              <mxPoint x="360" y="570" />
              <mxPoint x="360" y="50" />
            </Array>
          </mxGeometry>
        </mxCell>
        <mxCell id="SDCV4HEXbszDsQ0u5EDD-13" value="More feature branches are merged to dev" style="rounded=1;whiteSpace=wrap;html=1;fontSize=12;glass=0;strokeWidth=1;shadow=0;" vertex="1" parent="WIyWlLk6GJQsqaUBKTNV-1">
          <mxGeometry x="190" y="550" width="140" height="40" as="geometry" />
        </mxCell>
        <mxCell id="SDCV4HEXbszDsQ0u5EDD-19" style="edgeStyle=orthogonalEdgeStyle;rounded=0;orthogonalLoop=1;jettySize=auto;html=1;entryX=1;entryY=0.5;entryDx=0;entryDy=0;" edge="1" parent="WIyWlLk6GJQsqaUBKTNV-1" source="SDCV4HEXbszDsQ0u5EDD-14" target="SDCV4HEXbszDsQ0u5EDD-2">
          <mxGeometry relative="1" as="geometry">
            <Array as="points">
              <mxPoint x="260" y="290" />
            </Array>
          </mxGeometry>
        </mxCell>
        <mxCell id="SDCV4HEXbszDsQ0u5EDD-14" value="User push new commits to this feature branch to fix issues" style="rounded=1;whiteSpace=wrap;html=1;fontSize=12;glass=0;strokeWidth=1;shadow=0;" vertex="1" parent="WIyWlLk6GJQsqaUBKTNV-1">
          <mxGeometry x="190" y="350" width="140" height="40" as="geometry" />
        </mxCell>
        <mxCell id="SDCV4HEXbszDsQ0u5EDD-18" style="edgeStyle=orthogonalEdgeStyle;rounded=0;orthogonalLoop=1;jettySize=auto;html=1;entryX=0.5;entryY=1;entryDx=0;entryDy=0;" edge="1" parent="WIyWlLk6GJQsqaUBKTNV-1" source="SDCV4HEXbszDsQ0u5EDD-16" target="SDCV4HEXbszDsQ0u5EDD-14">
          <mxGeometry relative="1" as="geometry" />
        </mxCell>
        <mxCell id="SDCV4HEXbszDsQ0u5EDD-16" value="feature is not merged to dev" style="rounded=1;whiteSpace=wrap;html=1;fontSize=12;glass=0;strokeWidth=1;shadow=0;" vertex="1" parent="WIyWlLk6GJQsqaUBKTNV-1">
          <mxGeometry x="190" y="450" width="140" height="40" as="geometry" />
        </mxCell>
        <mxCell id="SDCV4HEXbszDsQ0u5EDD-24" style="edgeStyle=orthogonalEdgeStyle;rounded=0;orthogonalLoop=1;jettySize=auto;html=1;entryX=0.5;entryY=0;entryDx=0;entryDy=0;" edge="1" parent="WIyWlLk6GJQsqaUBKTNV-1" source="SDCV4HEXbszDsQ0u5EDD-21" target="SDCV4HEXbszDsQ0u5EDD-23">
          <mxGeometry relative="1" as="geometry" />
        </mxCell>
        <mxCell id="SDCV4HEXbszDsQ0u5EDD-21" value="Decision to merge dev to main is started" style="rounded=1;whiteSpace=wrap;html=1;fontSize=12;glass=0;strokeWidth=1;shadow=0;" vertex="1" parent="WIyWlLk6GJQsqaUBKTNV-1">
          <mxGeometry x="400" y="30" width="140" height="40" as="geometry" />
        </mxCell>
        <mxCell id="SDCV4HEXbszDsQ0u5EDD-39" style="edgeStyle=orthogonalEdgeStyle;rounded=0;orthogonalLoop=1;jettySize=auto;html=1;entryX=0.5;entryY=0;entryDx=0;entryDy=0;" edge="1" parent="WIyWlLk6GJQsqaUBKTNV-1" source="SDCV4HEXbszDsQ0u5EDD-23" target="SDCV4HEXbszDsQ0u5EDD-25">
          <mxGeometry relative="1" as="geometry" />
        </mxCell>
        <mxCell id="SDCV4HEXbszDsQ0u5EDD-23" value="Pull Request from dev to main is created" style="rounded=1;whiteSpace=wrap;html=1;fontSize=12;glass=0;strokeWidth=1;shadow=0;" vertex="1" parent="WIyWlLk6GJQsqaUBKTNV-1">
          <mxGeometry x="400" y="109" width="140" height="40" as="geometry" />
        </mxCell>
        <mxCell id="SDCV4HEXbszDsQ0u5EDD-40" style="edgeStyle=orthogonalEdgeStyle;rounded=0;orthogonalLoop=1;jettySize=auto;html=1;entryX=0.5;entryY=0;entryDx=0;entryDy=0;" edge="1" parent="WIyWlLk6GJQsqaUBKTNV-1" source="SDCV4HEXbszDsQ0u5EDD-25" target="SDCV4HEXbszDsQ0u5EDD-27">
          <mxGeometry relative="1" as="geometry" />
        </mxCell>
        <mxCell id="SDCV4HEXbszDsQ0u5EDD-25" value="Teamcity detects this pull request or new changes in this pull request" style="rounded=1;whiteSpace=wrap;html=1;fontSize=12;glass=0;strokeWidth=1;shadow=0;" vertex="1" parent="WIyWlLk6GJQsqaUBKTNV-1">
          <mxGeometry x="390" y="189" width="160" height="40" as="geometry" />
        </mxCell>
        <mxCell id="SDCV4HEXbszDsQ0u5EDD-26" style="edgeStyle=orthogonalEdgeStyle;rounded=0;orthogonalLoop=1;jettySize=auto;html=1;entryX=0.5;entryY=0;entryDx=0;entryDy=0;" edge="1" source="SDCV4HEXbszDsQ0u5EDD-27" target="SDCV4HEXbszDsQ0u5EDD-30" parent="WIyWlLk6GJQsqaUBKTNV-1">
          <mxGeometry relative="1" as="geometry" />
        </mxCell>
        <mxCell id="SDCV4HEXbszDsQ0u5EDD-27" value="Teamcity executes unit test" style="rounded=1;whiteSpace=wrap;html=1;fontSize=12;glass=0;strokeWidth=1;shadow=0;" vertex="1" parent="WIyWlLk6GJQsqaUBKTNV-1">
          <mxGeometry x="400" y="269" width="140" height="40" as="geometry" />
        </mxCell>
        <mxCell id="SDCV4HEXbszDsQ0u5EDD-28" style="edgeStyle=orthogonalEdgeStyle;rounded=0;orthogonalLoop=1;jettySize=auto;html=1;entryX=0.5;entryY=0;entryDx=0;entryDy=0;" edge="1" source="SDCV4HEXbszDsQ0u5EDD-30" target="SDCV4HEXbszDsQ0u5EDD-32" parent="WIyWlLk6GJQsqaUBKTNV-1">
          <mxGeometry relative="1" as="geometry" />
        </mxCell>
        <mxCell id="SDCV4HEXbszDsQ0u5EDD-29" style="edgeStyle=orthogonalEdgeStyle;rounded=0;orthogonalLoop=1;jettySize=auto;html=1;entryX=0;entryY=0.5;entryDx=0;entryDy=0;" edge="1" source="SDCV4HEXbszDsQ0u5EDD-30" target="SDCV4HEXbszDsQ0u5EDD-38" parent="WIyWlLk6GJQsqaUBKTNV-1">
          <mxGeometry relative="1" as="geometry" />
        </mxCell>
        <mxCell id="SDCV4HEXbszDsQ0u5EDD-30" value="Unit test passed?" style="rhombus;whiteSpace=wrap;html=1;shadow=0;fontFamily=Helvetica;fontSize=12;align=center;strokeWidth=1;spacing=6;spacingTop=-4;" vertex="1" parent="WIyWlLk6GJQsqaUBKTNV-1">
          <mxGeometry x="420" y="349" width="100" height="80" as="geometry" />
        </mxCell>
        <mxCell id="SDCV4HEXbszDsQ0u5EDD-43" style="edgeStyle=orthogonalEdgeStyle;rounded=0;orthogonalLoop=1;jettySize=auto;html=1;" edge="1" parent="WIyWlLk6GJQsqaUBKTNV-1" source="SDCV4HEXbszDsQ0u5EDD-32" target="SDCV4HEXbszDsQ0u5EDD-42">
          <mxGeometry relative="1" as="geometry" />
        </mxCell>
        <mxCell id="SDCV4HEXbszDsQ0u5EDD-32" value="dev is merged to main" style="rounded=1;whiteSpace=wrap;html=1;fontSize=12;glass=0;strokeWidth=1;shadow=0;" vertex="1" parent="WIyWlLk6GJQsqaUBKTNV-1">
          <mxGeometry x="400" y="475" width="140" height="40" as="geometry" />
        </mxCell>
        <mxCell id="SDCV4HEXbszDsQ0u5EDD-41" style="edgeStyle=orthogonalEdgeStyle;rounded=0;orthogonalLoop=1;jettySize=auto;html=1;entryX=1;entryY=0.5;entryDx=0;entryDy=0;" edge="1" parent="WIyWlLk6GJQsqaUBKTNV-1" source="SDCV4HEXbszDsQ0u5EDD-36" target="SDCV4HEXbszDsQ0u5EDD-25">
          <mxGeometry relative="1" as="geometry">
            <Array as="points">
              <mxPoint x="640" y="209" />
            </Array>
          </mxGeometry>
        </mxCell>
        <mxCell id="SDCV4HEXbszDsQ0u5EDD-36" value="fixes are merged to dev" style="rounded=1;whiteSpace=wrap;html=1;fontSize=12;glass=0;strokeWidth=1;shadow=0;" vertex="1" parent="WIyWlLk6GJQsqaUBKTNV-1">
          <mxGeometry x="570" y="269" width="140" height="40" as="geometry" />
        </mxCell>
        <mxCell id="SDCV4HEXbszDsQ0u5EDD-37" style="edgeStyle=orthogonalEdgeStyle;rounded=0;orthogonalLoop=1;jettySize=auto;html=1;entryX=0.5;entryY=1;entryDx=0;entryDy=0;" edge="1" source="SDCV4HEXbszDsQ0u5EDD-38" target="SDCV4HEXbszDsQ0u5EDD-36" parent="WIyWlLk6GJQsqaUBKTNV-1">
          <mxGeometry relative="1" as="geometry" />
        </mxCell>
        <mxCell id="SDCV4HEXbszDsQ0u5EDD-38" value="dev is not merged to main" style="rounded=1;whiteSpace=wrap;html=1;fontSize=12;glass=0;strokeWidth=1;shadow=0;" vertex="1" parent="WIyWlLk6GJQsqaUBKTNV-1">
          <mxGeometry x="570" y="369" width="140" height="40" as="geometry" />
        </mxCell>
        <mxCell id="SDCV4HEXbszDsQ0u5EDD-42" value="Github triggers Jenkins to build a new version" style="ellipse;whiteSpace=wrap;html=1;" vertex="1" parent="WIyWlLk6GJQsqaUBKTNV-1">
          <mxGeometry x="580" y="455" width="120" height="80" as="geometry" />
        </mxCell>
      </root>
    </mxGraphModel>
  </diagram>
</mxfile>
